<mxfile host="Electron" modified="2023-11-16T06:22:47.649Z" agent="Mozilla/5.0 (Windows NT 10.0; Win64; x64) AppleWebKit/537.36 (KHTML, like Gecko) draw.io/21.5.0 Chrome/112.0.5615.204 Electron/24.5.1 Safari/537.36" etag="cKZbaAlj3Y8sJymeDmUL" version="21.5.0" type="device">
  <diagram name="Page-1" id="ZCTmXSfx99b_AYZsrj3S">
    <mxGraphModel dx="1766" dy="804" grid="1" gridSize="10" guides="1" tooltips="1" connect="1" arrows="1" fold="1" page="0" pageScale="1" pageWidth="827" pageHeight="1169" math="0" shadow="0">
      <root>
        <mxCell id="0" />
        <mxCell id="1" parent="0" />
        <mxCell id="9ZaSiUd8DV9uHAAC3J2y-7" style="edgeStyle=orthogonalEdgeStyle;rounded=0;orthogonalLoop=1;jettySize=auto;html=1;exitX=0.5;exitY=1;exitDx=0;exitDy=0;entryX=0.5;entryY=0;entryDx=0;entryDy=0;" edge="1" parent="1" source="9ZaSiUd8DV9uHAAC3J2y-1" target="9ZaSiUd8DV9uHAAC3J2y-6">
          <mxGeometry relative="1" as="geometry" />
        </mxCell>
        <mxCell id="9ZaSiUd8DV9uHAAC3J2y-1" value="&lt;font style=&quot;font-size: 23px;&quot;&gt;/start&lt;/font&gt;" style="ellipse;whiteSpace=wrap;html=1;fillColor=#60a917;fontColor=#ffffff;strokeColor=#2D7600;" vertex="1" parent="1">
          <mxGeometry x="354" y="40" width="120" height="80" as="geometry" />
        </mxCell>
        <mxCell id="9ZaSiUd8DV9uHAAC3J2y-29" style="edgeStyle=orthogonalEdgeStyle;rounded=0;orthogonalLoop=1;jettySize=auto;html=1;exitX=0;exitY=0.5;exitDx=0;exitDy=0;entryX=0.5;entryY=0;entryDx=0;entryDy=0;" edge="1" parent="1" source="9ZaSiUd8DV9uHAAC3J2y-6" target="9ZaSiUd8DV9uHAAC3J2y-28">
          <mxGeometry relative="1" as="geometry" />
        </mxCell>
        <mxCell id="9ZaSiUd8DV9uHAAC3J2y-33" style="edgeStyle=orthogonalEdgeStyle;rounded=0;orthogonalLoop=1;jettySize=auto;html=1;exitX=1;exitY=0.5;exitDx=0;exitDy=0;entryX=0.5;entryY=0;entryDx=0;entryDy=0;" edge="1" parent="1" source="9ZaSiUd8DV9uHAAC3J2y-6" target="9ZaSiUd8DV9uHAAC3J2y-31">
          <mxGeometry relative="1" as="geometry" />
        </mxCell>
        <mxCell id="9ZaSiUd8DV9uHAAC3J2y-6" value="&lt;font style=&quot;font-size: 17px;&quot;&gt;Debtor or Shop?&lt;/font&gt;" style="rhombus;whiteSpace=wrap;html=1;fillColor=#e3c800;fontColor=#000000;strokeColor=#B09500;" vertex="1" parent="1">
          <mxGeometry x="319" y="160" width="190" height="100" as="geometry" />
        </mxCell>
        <mxCell id="9ZaSiUd8DV9uHAAC3J2y-10" value="&lt;font style=&quot;font-size: 18px;&quot;&gt;Sign in as debtor&lt;/font&gt;" style="rounded=0;whiteSpace=wrap;html=1;fillColor=#1ba1e2;fontColor=#ffffff;strokeColor=#006EAF;" vertex="1" parent="1">
          <mxGeometry x="18" y="555" width="120" height="60" as="geometry" />
        </mxCell>
        <mxCell id="9ZaSiUd8DV9uHAAC3J2y-12" value="&lt;span style=&quot;color: rgb(240, 240, 240); font-family: Helvetica; font-size: 17px; font-style: normal; font-variant-ligatures: normal; font-variant-caps: normal; font-weight: 400; letter-spacing: normal; orphans: 2; text-align: center; text-indent: 0px; text-transform: none; widows: 2; word-spacing: 0px; -webkit-text-stroke-width: 0px; background-color: rgb(42, 37, 47); text-decoration-thickness: initial; text-decoration-style: initial; text-decoration-color: initial; float: none; display: inline !important;&quot;&gt;Debtor&lt;/span&gt;" style="text;whiteSpace=wrap;html=1;" vertex="1" parent="1">
          <mxGeometry x="250" y="180" width="60" height="30" as="geometry" />
        </mxCell>
        <mxCell id="9ZaSiUd8DV9uHAAC3J2y-19" style="edgeStyle=orthogonalEdgeStyle;rounded=0;orthogonalLoop=1;jettySize=auto;html=1;exitX=0;exitY=0.5;exitDx=0;exitDy=0;entryX=0.5;entryY=0;entryDx=0;entryDy=0;" edge="1" parent="1" source="9ZaSiUd8DV9uHAAC3J2y-15" target="9ZaSiUd8DV9uHAAC3J2y-18">
          <mxGeometry relative="1" as="geometry" />
        </mxCell>
        <mxCell id="9ZaSiUd8DV9uHAAC3J2y-38" style="edgeStyle=orthogonalEdgeStyle;rounded=0;orthogonalLoop=1;jettySize=auto;html=1;exitX=1;exitY=0.5;exitDx=0;exitDy=0;entryX=0.5;entryY=0;entryDx=0;entryDy=0;" edge="1" parent="1" source="9ZaSiUd8DV9uHAAC3J2y-15" target="9ZaSiUd8DV9uHAAC3J2y-35">
          <mxGeometry relative="1" as="geometry" />
        </mxCell>
        <mxCell id="9ZaSiUd8DV9uHAAC3J2y-15" value="&lt;font style=&quot;font-size: 17px;&quot;&gt;Shop exists?&lt;/font&gt;" style="rhombus;whiteSpace=wrap;html=1;fillColor=#e3c800;fontColor=#000000;strokeColor=#B09500;" vertex="1" parent="1">
          <mxGeometry x="676" y="555" width="190" height="100" as="geometry" />
        </mxCell>
        <mxCell id="9ZaSiUd8DV9uHAAC3J2y-18" value="&lt;font style=&quot;font-size: 18px;&quot;&gt;Sign in as shop&lt;/font&gt;" style="rounded=0;whiteSpace=wrap;html=1;fillColor=#1ba1e2;fontColor=#ffffff;strokeColor=#006EAF;" vertex="1" parent="1">
          <mxGeometry x="571" y="960" width="120" height="60" as="geometry" />
        </mxCell>
        <mxCell id="9ZaSiUd8DV9uHAAC3J2y-22" value="&lt;span style=&quot;color: rgb(240, 240, 240); font-family: Helvetica; font-size: 17px; font-style: normal; font-variant-ligatures: normal; font-variant-caps: normal; font-weight: 400; letter-spacing: normal; orphans: 2; text-align: center; text-indent: 0px; text-transform: none; widows: 2; word-spacing: 0px; -webkit-text-stroke-width: 0px; background-color: rgb(42, 37, 47); text-decoration-thickness: initial; text-decoration-style: initial; text-decoration-color: initial; float: none; display: inline !important;&quot;&gt;Shop&lt;/span&gt;" style="text;whiteSpace=wrap;html=1;" vertex="1" parent="1">
          <mxGeometry x="540" y="180" width="60" height="30" as="geometry" />
        </mxCell>
        <mxCell id="9ZaSiUd8DV9uHAAC3J2y-23" value="&lt;span style=&quot;color: rgb(240, 240, 240); font-family: Helvetica; font-size: 17px; font-style: normal; font-variant-ligatures: normal; font-variant-caps: normal; font-weight: 400; letter-spacing: normal; orphans: 2; text-align: center; text-indent: 0px; text-transform: none; widows: 2; word-spacing: 0px; -webkit-text-stroke-width: 0px; background-color: rgb(42, 37, 47); text-decoration-thickness: initial; text-decoration-style: initial; text-decoration-color: initial; float: none; display: inline !important;&quot;&gt;Yes&lt;/span&gt;" style="text;whiteSpace=wrap;html=1;" vertex="1" parent="1">
          <mxGeometry x="631" y="574" width="60" height="30" as="geometry" />
        </mxCell>
        <mxCell id="9ZaSiUd8DV9uHAAC3J2y-24" value="&lt;span style=&quot;color: rgb(240, 240, 240); font-family: Helvetica; font-size: 17px; font-style: normal; font-variant-ligatures: normal; font-variant-caps: normal; font-weight: 400; letter-spacing: normal; orphans: 2; text-align: center; text-indent: 0px; text-transform: none; widows: 2; word-spacing: 0px; -webkit-text-stroke-width: 0px; background-color: rgb(42, 37, 47); text-decoration-thickness: initial; text-decoration-style: initial; text-decoration-color: initial; float: none; display: inline !important;&quot;&gt;No&lt;/span&gt;" style="text;whiteSpace=wrap;html=1;" vertex="1" parent="1">
          <mxGeometry x="891" y="574" width="60" height="30" as="geometry" />
        </mxCell>
        <mxCell id="9ZaSiUd8DV9uHAAC3J2y-42" style="edgeStyle=orthogonalEdgeStyle;rounded=0;orthogonalLoop=1;jettySize=auto;html=1;exitX=0.5;exitY=1;exitDx=0;exitDy=0;entryX=0.5;entryY=0;entryDx=0;entryDy=0;" edge="1" parent="1" source="9ZaSiUd8DV9uHAAC3J2y-28" target="9ZaSiUd8DV9uHAAC3J2y-41">
          <mxGeometry relative="1" as="geometry" />
        </mxCell>
        <mxCell id="9ZaSiUd8DV9uHAAC3J2y-28" value="&lt;font style=&quot;font-size: 16px;&quot;&gt;Share phone number&lt;/font&gt;" style="shape=parallelogram;perimeter=parallelogramPerimeter;whiteSpace=wrap;html=1;fixedSize=1;fillColor=#60a917;fontColor=#ffffff;strokeColor=#2D7600;" vertex="1" parent="1">
          <mxGeometry x="10" y="290" width="136" height="60" as="geometry" />
        </mxCell>
        <mxCell id="9ZaSiUd8DV9uHAAC3J2y-49" style="edgeStyle=orthogonalEdgeStyle;rounded=0;orthogonalLoop=1;jettySize=auto;html=1;exitX=0.5;exitY=1;exitDx=0;exitDy=0;entryX=0.5;entryY=0;entryDx=0;entryDy=0;" edge="1" parent="1" source="9ZaSiUd8DV9uHAAC3J2y-31" target="9ZaSiUd8DV9uHAAC3J2y-48">
          <mxGeometry relative="1" as="geometry" />
        </mxCell>
        <mxCell id="9ZaSiUd8DV9uHAAC3J2y-31" value="&lt;font style=&quot;font-size: 16px;&quot;&gt;Share phone number&lt;/font&gt;" style="shape=parallelogram;perimeter=parallelogramPerimeter;whiteSpace=wrap;html=1;fixedSize=1;fillColor=#60a917;fontColor=#ffffff;strokeColor=#2D7600;" vertex="1" parent="1">
          <mxGeometry x="703" y="290" width="136" height="60" as="geometry" />
        </mxCell>
        <mxCell id="9ZaSiUd8DV9uHAAC3J2y-37" style="edgeStyle=orthogonalEdgeStyle;rounded=0;orthogonalLoop=1;jettySize=auto;html=1;exitX=0.5;exitY=1;exitDx=0;exitDy=0;entryX=0.5;entryY=0;entryDx=0;entryDy=0;" edge="1" parent="1" source="9ZaSiUd8DV9uHAAC3J2y-35" target="9ZaSiUd8DV9uHAAC3J2y-36">
          <mxGeometry relative="1" as="geometry" />
        </mxCell>
        <mxCell id="9ZaSiUd8DV9uHAAC3J2y-35" value="&lt;font style=&quot;font-size: 18px;&quot;&gt;Send shop name&lt;/font&gt;" style="shape=parallelogram;perimeter=parallelogramPerimeter;whiteSpace=wrap;html=1;fixedSize=1;fillColor=#60a917;fontColor=#ffffff;strokeColor=#2D7600;" vertex="1" parent="1">
          <mxGeometry x="866" y="700" width="136" height="60" as="geometry" />
        </mxCell>
        <mxCell id="9ZaSiUd8DV9uHAAC3J2y-56" style="edgeStyle=orthogonalEdgeStyle;rounded=0;orthogonalLoop=1;jettySize=auto;html=1;exitX=0.5;exitY=1;exitDx=0;exitDy=0;entryX=0.5;entryY=0;entryDx=0;entryDy=0;" edge="1" parent="1" source="9ZaSiUd8DV9uHAAC3J2y-36" target="9ZaSiUd8DV9uHAAC3J2y-55">
          <mxGeometry relative="1" as="geometry" />
        </mxCell>
        <mxCell id="9ZaSiUd8DV9uHAAC3J2y-36" value="&lt;font style=&quot;font-size: 18px;&quot;&gt;Send shop location&lt;/font&gt;" style="shape=parallelogram;perimeter=parallelogramPerimeter;whiteSpace=wrap;html=1;fixedSize=1;fillColor=#60a917;fontColor=#ffffff;strokeColor=#2D7600;" vertex="1" parent="1">
          <mxGeometry x="866" y="815" width="136" height="60" as="geometry" />
        </mxCell>
        <mxCell id="9ZaSiUd8DV9uHAAC3J2y-43" style="edgeStyle=orthogonalEdgeStyle;rounded=0;orthogonalLoop=1;jettySize=auto;html=1;exitX=0.5;exitY=1;exitDx=0;exitDy=0;entryX=0.5;entryY=0;entryDx=0;entryDy=0;" edge="1" parent="1" source="9ZaSiUd8DV9uHAAC3J2y-41" target="9ZaSiUd8DV9uHAAC3J2y-10">
          <mxGeometry relative="1" as="geometry" />
        </mxCell>
        <mxCell id="9ZaSiUd8DV9uHAAC3J2y-41" value="&lt;font style=&quot;font-size: 19px;&quot;&gt;Correct format?&lt;/font&gt;" style="rhombus;whiteSpace=wrap;html=1;fillColor=#e3c800;fontColor=#000000;strokeColor=#B09500;" vertex="1" parent="1">
          <mxGeometry x="-17" y="410" width="190" height="100" as="geometry" />
        </mxCell>
        <mxCell id="9ZaSiUd8DV9uHAAC3J2y-44" value="&lt;span style=&quot;color: rgb(240, 240, 240); font-family: Helvetica; font-size: 17px; font-style: normal; font-variant-ligatures: normal; font-variant-caps: normal; font-weight: 400; letter-spacing: normal; orphans: 2; text-align: center; text-indent: 0px; text-transform: none; widows: 2; word-spacing: 0px; -webkit-text-stroke-width: 0px; background-color: rgb(42, 37, 47); text-decoration-thickness: initial; text-decoration-style: initial; text-decoration-color: initial; float: none; display: inline !important;&quot;&gt;Yes&lt;/span&gt;" style="text;whiteSpace=wrap;html=1;" vertex="1" parent="1">
          <mxGeometry x="81" y="513" width="60" height="30" as="geometry" />
        </mxCell>
        <mxCell id="9ZaSiUd8DV9uHAAC3J2y-47" style="edgeStyle=orthogonalEdgeStyle;rounded=0;orthogonalLoop=1;jettySize=auto;html=1;exitX=0.5;exitY=1;exitDx=0;exitDy=0;entryX=0;entryY=0.5;entryDx=0;entryDy=0;" edge="1" parent="1" source="9ZaSiUd8DV9uHAAC3J2y-45" target="9ZaSiUd8DV9uHAAC3J2y-28">
          <mxGeometry relative="1" as="geometry">
            <Array as="points">
              <mxPoint x="-80" y="459" />
              <mxPoint x="-80" y="320" />
            </Array>
          </mxGeometry>
        </mxCell>
        <mxCell id="9ZaSiUd8DV9uHAAC3J2y-45" value="&lt;span style=&quot;color: rgb(240, 240, 240); font-family: Helvetica; font-size: 17px; font-style: normal; font-variant-ligatures: normal; font-variant-caps: normal; font-weight: 400; letter-spacing: normal; orphans: 2; text-align: center; text-indent: 0px; text-transform: none; widows: 2; word-spacing: 0px; -webkit-text-stroke-width: 0px; background-color: rgb(42, 37, 47); text-decoration-thickness: initial; text-decoration-style: initial; text-decoration-color: initial; float: none; display: inline !important;&quot;&gt;No&lt;/span&gt;" style="text;whiteSpace=wrap;html=1;" vertex="1" parent="1">
          <mxGeometry x="-50" y="429" width="60" height="30" as="geometry" />
        </mxCell>
        <mxCell id="9ZaSiUd8DV9uHAAC3J2y-50" style="edgeStyle=orthogonalEdgeStyle;rounded=0;orthogonalLoop=1;jettySize=auto;html=1;exitX=0.5;exitY=1;exitDx=0;exitDy=0;entryX=0.5;entryY=0;entryDx=0;entryDy=0;" edge="1" parent="1" source="9ZaSiUd8DV9uHAAC3J2y-48" target="9ZaSiUd8DV9uHAAC3J2y-15">
          <mxGeometry relative="1" as="geometry" />
        </mxCell>
        <mxCell id="9ZaSiUd8DV9uHAAC3J2y-51" style="edgeStyle=orthogonalEdgeStyle;rounded=0;orthogonalLoop=1;jettySize=auto;html=1;exitX=0;exitY=0.5;exitDx=0;exitDy=0;entryX=0;entryY=0.5;entryDx=0;entryDy=0;" edge="1" parent="1" source="9ZaSiUd8DV9uHAAC3J2y-48" target="9ZaSiUd8DV9uHAAC3J2y-31">
          <mxGeometry relative="1" as="geometry">
            <Array as="points">
              <mxPoint x="600" y="460" />
              <mxPoint x="600" y="320" />
            </Array>
          </mxGeometry>
        </mxCell>
        <mxCell id="9ZaSiUd8DV9uHAAC3J2y-48" value="&lt;font style=&quot;font-size: 19px;&quot;&gt;Correct format?&lt;/font&gt;" style="rhombus;whiteSpace=wrap;html=1;fillColor=#e3c800;fontColor=#000000;strokeColor=#B09500;" vertex="1" parent="1">
          <mxGeometry x="676" y="410" width="190" height="100" as="geometry" />
        </mxCell>
        <mxCell id="9ZaSiUd8DV9uHAAC3J2y-52" value="&lt;span style=&quot;color: rgb(240, 240, 240); font-family: Helvetica; font-size: 17px; font-style: normal; font-variant-ligatures: normal; font-variant-caps: normal; font-weight: 400; letter-spacing: normal; orphans: 2; text-align: center; text-indent: 0px; text-transform: none; widows: 2; word-spacing: 0px; -webkit-text-stroke-width: 0px; background-color: rgb(42, 37, 47); text-decoration-thickness: initial; text-decoration-style: initial; text-decoration-color: initial; float: none; display: inline !important;&quot;&gt;No&lt;/span&gt;" style="text;whiteSpace=wrap;html=1;" vertex="1" parent="1">
          <mxGeometry x="643" y="430" width="60" height="30" as="geometry" />
        </mxCell>
        <mxCell id="9ZaSiUd8DV9uHAAC3J2y-53" value="&lt;span style=&quot;color: rgb(240, 240, 240); font-family: Helvetica; font-size: 17px; font-style: normal; font-variant-ligatures: normal; font-variant-caps: normal; font-weight: 400; letter-spacing: normal; orphans: 2; text-align: center; text-indent: 0px; text-transform: none; widows: 2; word-spacing: 0px; -webkit-text-stroke-width: 0px; background-color: rgb(42, 37, 47); text-decoration-thickness: initial; text-decoration-style: initial; text-decoration-color: initial; float: none; display: inline !important;&quot;&gt;Yes&lt;/span&gt;" style="text;whiteSpace=wrap;html=1;" vertex="1" parent="1">
          <mxGeometry x="774" y="513" width="60" height="30" as="geometry" />
        </mxCell>
        <mxCell id="9ZaSiUd8DV9uHAAC3J2y-57" style="edgeStyle=orthogonalEdgeStyle;rounded=0;orthogonalLoop=1;jettySize=auto;html=1;exitX=0;exitY=0.5;exitDx=0;exitDy=0;entryX=1;entryY=0.5;entryDx=0;entryDy=0;" edge="1" parent="1" source="9ZaSiUd8DV9uHAAC3J2y-55" target="9ZaSiUd8DV9uHAAC3J2y-18">
          <mxGeometry relative="1" as="geometry" />
        </mxCell>
        <mxCell id="9ZaSiUd8DV9uHAAC3J2y-60" style="edgeStyle=orthogonalEdgeStyle;rounded=0;orthogonalLoop=1;jettySize=auto;html=1;exitX=1;exitY=0.5;exitDx=0;exitDy=0;entryX=0;entryY=0.5;entryDx=0;entryDy=0;" edge="1" parent="1" source="9ZaSiUd8DV9uHAAC3J2y-55" target="9ZaSiUd8DV9uHAAC3J2y-59">
          <mxGeometry relative="1" as="geometry" />
        </mxCell>
        <mxCell id="9ZaSiUd8DV9uHAAC3J2y-55" value="&lt;span style=&quot;font-size: 17px;&quot;&gt;Shop added successfully?&lt;/span&gt;" style="rhombus;whiteSpace=wrap;html=1;fillColor=#e3c800;fontColor=#000000;strokeColor=#B09500;" vertex="1" parent="1">
          <mxGeometry x="839" y="940" width="190" height="100" as="geometry" />
        </mxCell>
        <mxCell id="9ZaSiUd8DV9uHAAC3J2y-58" value="&lt;span style=&quot;color: rgb(240, 240, 240); font-family: Helvetica; font-size: 17px; font-style: normal; font-variant-ligatures: normal; font-variant-caps: normal; font-weight: 400; letter-spacing: normal; orphans: 2; text-align: center; text-indent: 0px; text-transform: none; widows: 2; word-spacing: 0px; -webkit-text-stroke-width: 0px; background-color: rgb(42, 37, 47); text-decoration-thickness: initial; text-decoration-style: initial; text-decoration-color: initial; float: none; display: inline !important;&quot;&gt;Yes&lt;/span&gt;" style="text;whiteSpace=wrap;html=1;" vertex="1" parent="1">
          <mxGeometry x="806" y="960" width="60" height="30" as="geometry" />
        </mxCell>
        <mxCell id="9ZaSiUd8DV9uHAAC3J2y-59" value="&lt;font style=&quot;font-size: 18px;&quot;&gt;End conversation&lt;/font&gt;" style="rounded=0;whiteSpace=wrap;html=1;fillColor=#1ba1e2;fontColor=#ffffff;strokeColor=#006EAF;" vertex="1" parent="1">
          <mxGeometry x="1110" y="960" width="120" height="60" as="geometry" />
        </mxCell>
        <mxCell id="9ZaSiUd8DV9uHAAC3J2y-61" value="&lt;span style=&quot;color: rgb(240, 240, 240); font-family: Helvetica; font-size: 17px; font-style: normal; font-variant-ligatures: normal; font-variant-caps: normal; font-weight: 400; letter-spacing: normal; orphans: 2; text-align: center; text-indent: 0px; text-transform: none; widows: 2; word-spacing: 0px; -webkit-text-stroke-width: 0px; background-color: rgb(42, 37, 47); text-decoration-thickness: initial; text-decoration-style: initial; text-decoration-color: initial; float: none; display: inline !important;&quot;&gt;Yes&lt;/span&gt;" style="text;whiteSpace=wrap;html=1;" vertex="1" parent="1">
          <mxGeometry x="1029" y="960" width="60" height="30" as="geometry" />
        </mxCell>
        <mxCell id="9ZaSiUd8DV9uHAAC3J2y-66" style="edgeStyle=orthogonalEdgeStyle;rounded=0;orthogonalLoop=1;jettySize=auto;html=1;exitX=0.5;exitY=1;exitDx=0;exitDy=0;entryX=0.5;entryY=0;entryDx=0;entryDy=0;" edge="1" parent="1" source="9ZaSiUd8DV9uHAAC3J2y-64" target="9ZaSiUd8DV9uHAAC3J2y-65">
          <mxGeometry relative="1" as="geometry" />
        </mxCell>
        <mxCell id="9ZaSiUd8DV9uHAAC3J2y-64" value="&lt;font style=&quot;font-size: 23px;&quot;&gt;/shop_menu&lt;/font&gt;" style="ellipse;whiteSpace=wrap;html=1;fillColor=#60a917;fontColor=#ffffff;strokeColor=#2D7600;" vertex="1" parent="1">
          <mxGeometry x="2110" y="40" width="170" height="80" as="geometry" />
        </mxCell>
        <mxCell id="9ZaSiUd8DV9uHAAC3J2y-68" style="edgeStyle=orthogonalEdgeStyle;rounded=0;orthogonalLoop=1;jettySize=auto;html=1;exitX=1;exitY=0.5;exitDx=0;exitDy=0;entryX=0;entryY=0.5;entryDx=0;entryDy=0;" edge="1" parent="1" source="9ZaSiUd8DV9uHAAC3J2y-65" target="9ZaSiUd8DV9uHAAC3J2y-67">
          <mxGeometry relative="1" as="geometry" />
        </mxCell>
        <mxCell id="9ZaSiUd8DV9uHAAC3J2y-74" style="edgeStyle=orthogonalEdgeStyle;rounded=0;orthogonalLoop=1;jettySize=auto;html=1;exitX=0.5;exitY=1;exitDx=0;exitDy=0;" edge="1" parent="1" source="9ZaSiUd8DV9uHAAC3J2y-65" target="9ZaSiUd8DV9uHAAC3J2y-73">
          <mxGeometry relative="1" as="geometry" />
        </mxCell>
        <mxCell id="9ZaSiUd8DV9uHAAC3J2y-65" value="&lt;font style=&quot;font-size: 17px;&quot;&gt;is shop_id assigned?&lt;/font&gt;" style="rhombus;whiteSpace=wrap;html=1;fillColor=#e3c800;fontColor=#000000;strokeColor=#B09500;" vertex="1" parent="1">
          <mxGeometry x="2090" y="160" width="210" height="100" as="geometry" />
        </mxCell>
        <mxCell id="9ZaSiUd8DV9uHAAC3J2y-67" value="&lt;font style=&quot;font-size: 18px;&quot;&gt;Sign in as debtor&lt;/font&gt;" style="rounded=0;whiteSpace=wrap;html=1;fillColor=#1ba1e2;fontColor=#ffffff;strokeColor=#006EAF;" vertex="1" parent="1">
          <mxGeometry x="2380" y="180" width="120" height="60" as="geometry" />
        </mxCell>
        <mxCell id="9ZaSiUd8DV9uHAAC3J2y-69" value="&lt;span style=&quot;color: rgb(240, 240, 240); font-family: Helvetica; font-size: 17px; font-style: normal; font-variant-ligatures: normal; font-variant-caps: normal; font-weight: 400; letter-spacing: normal; orphans: 2; text-align: center; text-indent: 0px; text-transform: none; widows: 2; word-spacing: 0px; -webkit-text-stroke-width: 0px; background-color: rgb(42, 37, 47); text-decoration-thickness: initial; text-decoration-style: initial; text-decoration-color: initial; float: none; display: inline !important;&quot;&gt;No&lt;/span&gt;" style="text;whiteSpace=wrap;html=1;" vertex="1" parent="1">
          <mxGeometry x="2310" y="180" width="60" height="30" as="geometry" />
        </mxCell>
        <mxCell id="9ZaSiUd8DV9uHAAC3J2y-72" value="&lt;span style=&quot;color: rgb(240, 240, 240); font-family: Helvetica; font-size: 17px; font-style: normal; font-variant-ligatures: normal; font-variant-caps: normal; font-weight: 400; letter-spacing: normal; orphans: 2; text-align: center; text-indent: 0px; text-transform: none; widows: 2; word-spacing: 0px; -webkit-text-stroke-width: 0px; background-color: rgb(42, 37, 47); text-decoration-thickness: initial; text-decoration-style: initial; text-decoration-color: initial; float: none; display: inline !important;&quot;&gt;Yes&lt;/span&gt;" style="text;whiteSpace=wrap;html=1;" vertex="1" parent="1">
          <mxGeometry x="2200" y="270" width="60" height="30" as="geometry" />
        </mxCell>
        <mxCell id="9ZaSiUd8DV9uHAAC3J2y-77" style="edgeStyle=orthogonalEdgeStyle;rounded=0;orthogonalLoop=1;jettySize=auto;html=1;exitX=0.5;exitY=1;exitDx=0;exitDy=0;" edge="1" parent="1" source="9ZaSiUd8DV9uHAAC3J2y-73">
          <mxGeometry relative="1" as="geometry">
            <mxPoint x="2194.9523809523807" y="440" as="targetPoint" />
          </mxGeometry>
        </mxCell>
        <mxCell id="9ZaSiUd8DV9uHAAC3J2y-73" value="&lt;font style=&quot;font-size: 16px;&quot;&gt;Search&lt;br&gt;Add&lt;br&gt;List&lt;br&gt;&lt;/font&gt;" style="shape=parallelogram;perimeter=parallelogramPerimeter;whiteSpace=wrap;html=1;fixedSize=1;fillColor=#60a917;fontColor=#ffffff;strokeColor=#2D7600;" vertex="1" parent="1">
          <mxGeometry x="2127" y="320" width="136" height="60" as="geometry" />
        </mxCell>
        <mxCell id="9ZaSiUd8DV9uHAAC3J2y-76" value="&lt;span style=&quot;color: rgb(240, 240, 240); font-family: Helvetica; font-size: 17px; font-style: normal; font-variant-ligatures: normal; font-variant-caps: normal; font-weight: 400; letter-spacing: normal; orphans: 2; text-align: center; text-indent: 0px; text-transform: none; widows: 2; word-spacing: 0px; -webkit-text-stroke-width: 0px; background-color: rgb(42, 37, 47); text-decoration-thickness: initial; text-decoration-style: initial; text-decoration-color: initial; float: none; display: inline !important;&quot;&gt;Add&lt;/span&gt;" style="text;whiteSpace=wrap;html=1;" vertex="1" parent="1">
          <mxGeometry x="2200" y="400" width="60" height="30" as="geometry" />
        </mxCell>
        <mxCell id="9ZaSiUd8DV9uHAAC3J2y-80" style="edgeStyle=orthogonalEdgeStyle;rounded=0;orthogonalLoop=1;jettySize=auto;html=1;exitX=0.5;exitY=1;exitDx=0;exitDy=0;entryX=0.5;entryY=0;entryDx=0;entryDy=0;" edge="1" parent="1" source="9ZaSiUd8DV9uHAAC3J2y-78" target="9ZaSiUd8DV9uHAAC3J2y-79">
          <mxGeometry relative="1" as="geometry" />
        </mxCell>
        <mxCell id="9ZaSiUd8DV9uHAAC3J2y-78" value="&lt;font style=&quot;font-size: 16px;&quot;&gt;Send name&lt;br&gt;&lt;/font&gt;" style="shape=parallelogram;perimeter=parallelogramPerimeter;whiteSpace=wrap;html=1;fixedSize=1;fillColor=#60a917;fontColor=#ffffff;strokeColor=#2D7600;" vertex="1" parent="1">
          <mxGeometry x="2124" y="440" width="136" height="60" as="geometry" />
        </mxCell>
        <mxCell id="9ZaSiUd8DV9uHAAC3J2y-82" style="edgeStyle=orthogonalEdgeStyle;rounded=0;orthogonalLoop=1;jettySize=auto;html=1;exitX=0.5;exitY=1;exitDx=0;exitDy=0;entryX=0.5;entryY=0;entryDx=0;entryDy=0;" edge="1" parent="1" source="9ZaSiUd8DV9uHAAC3J2y-79" target="9ZaSiUd8DV9uHAAC3J2y-81">
          <mxGeometry relative="1" as="geometry" />
        </mxCell>
        <mxCell id="9ZaSiUd8DV9uHAAC3J2y-79" value="&lt;font style=&quot;font-size: 16px;&quot;&gt;Send nickname&lt;br&gt;&lt;/font&gt;" style="shape=parallelogram;perimeter=parallelogramPerimeter;whiteSpace=wrap;html=1;fixedSize=1;fillColor=#60a917;fontColor=#ffffff;strokeColor=#2D7600;" vertex="1" parent="1">
          <mxGeometry x="2124" y="544" width="136" height="60" as="geometry" />
        </mxCell>
        <mxCell id="9ZaSiUd8DV9uHAAC3J2y-86" style="edgeStyle=orthogonalEdgeStyle;rounded=0;orthogonalLoop=1;jettySize=auto;html=1;exitX=0.5;exitY=1;exitDx=0;exitDy=0;entryX=0.5;entryY=0;entryDx=0;entryDy=0;" edge="1" parent="1" source="9ZaSiUd8DV9uHAAC3J2y-81" target="9ZaSiUd8DV9uHAAC3J2y-83">
          <mxGeometry relative="1" as="geometry" />
        </mxCell>
        <mxCell id="9ZaSiUd8DV9uHAAC3J2y-81" value="&lt;font style=&quot;font-size: 16px;&quot;&gt;Send phone number&lt;br&gt;&lt;/font&gt;" style="shape=parallelogram;perimeter=parallelogramPerimeter;whiteSpace=wrap;html=1;fixedSize=1;fillColor=#60a917;fontColor=#ffffff;strokeColor=#2D7600;" vertex="1" parent="1">
          <mxGeometry x="2124" y="650" width="136" height="60" as="geometry" />
        </mxCell>
        <mxCell id="9ZaSiUd8DV9uHAAC3J2y-84" style="edgeStyle=orthogonalEdgeStyle;rounded=0;orthogonalLoop=1;jettySize=auto;html=1;exitX=0;exitY=0.5;exitDx=0;exitDy=0;entryX=0;entryY=0.5;entryDx=0;entryDy=0;" edge="1" parent="1" source="9ZaSiUd8DV9uHAAC3J2y-83" target="9ZaSiUd8DV9uHAAC3J2y-81">
          <mxGeometry relative="1" as="geometry">
            <Array as="points">
              <mxPoint x="2030" y="810" />
              <mxPoint x="2030" y="680" />
            </Array>
          </mxGeometry>
        </mxCell>
        <mxCell id="9ZaSiUd8DV9uHAAC3J2y-88" style="edgeStyle=orthogonalEdgeStyle;rounded=0;orthogonalLoop=1;jettySize=auto;html=1;exitX=0.5;exitY=1;exitDx=0;exitDy=0;entryX=0.5;entryY=0;entryDx=0;entryDy=0;" edge="1" parent="1" source="9ZaSiUd8DV9uHAAC3J2y-83" target="9ZaSiUd8DV9uHAAC3J2y-87">
          <mxGeometry relative="1" as="geometry" />
        </mxCell>
        <mxCell id="9ZaSiUd8DV9uHAAC3J2y-83" value="&lt;font style=&quot;font-size: 17px;&quot;&gt;valid phone number?&lt;/font&gt;" style="rhombus;whiteSpace=wrap;html=1;fillColor=#e3c800;fontColor=#000000;strokeColor=#B09500;" vertex="1" parent="1">
          <mxGeometry x="2087" y="760" width="210" height="100" as="geometry" />
        </mxCell>
        <mxCell id="9ZaSiUd8DV9uHAAC3J2y-85" value="&lt;span style=&quot;color: rgb(240, 240, 240); font-family: Helvetica; font-size: 17px; font-style: normal; font-variant-ligatures: normal; font-variant-caps: normal; font-weight: 400; letter-spacing: normal; orphans: 2; text-align: center; text-indent: 0px; text-transform: none; widows: 2; word-spacing: 0px; -webkit-text-stroke-width: 0px; background-color: rgb(42, 37, 47); text-decoration-thickness: initial; text-decoration-style: initial; text-decoration-color: initial; float: none; display: inline !important;&quot;&gt;No&lt;/span&gt;" style="text;whiteSpace=wrap;html=1;" vertex="1" parent="1">
          <mxGeometry x="2050" y="780" width="60" height="30" as="geometry" />
        </mxCell>
        <mxCell id="9ZaSiUd8DV9uHAAC3J2y-91" style="edgeStyle=orthogonalEdgeStyle;rounded=0;orthogonalLoop=1;jettySize=auto;html=1;exitX=0.5;exitY=1;exitDx=0;exitDy=0;entryX=0.5;entryY=0;entryDx=0;entryDy=0;" edge="1" parent="1" source="9ZaSiUd8DV9uHAAC3J2y-87" target="9ZaSiUd8DV9uHAAC3J2y-90">
          <mxGeometry relative="1" as="geometry" />
        </mxCell>
        <mxCell id="9ZaSiUd8DV9uHAAC3J2y-87" value="&lt;font style=&quot;font-size: 16px;&quot;&gt;Send debt &lt;br&gt;amount&lt;br&gt;&lt;/font&gt;" style="shape=parallelogram;perimeter=parallelogramPerimeter;whiteSpace=wrap;html=1;fixedSize=1;fillColor=#60a917;fontColor=#ffffff;strokeColor=#2D7600;" vertex="1" parent="1">
          <mxGeometry x="2124" y="910" width="136" height="60" as="geometry" />
        </mxCell>
        <mxCell id="9ZaSiUd8DV9uHAAC3J2y-89" value="&lt;span style=&quot;color: rgb(240, 240, 240); font-family: Helvetica; font-size: 17px; font-style: normal; font-variant-ligatures: normal; font-variant-caps: normal; font-weight: 400; letter-spacing: normal; orphans: 2; text-align: center; text-indent: 0px; text-transform: none; widows: 2; word-spacing: 0px; -webkit-text-stroke-width: 0px; background-color: rgb(42, 37, 47); text-decoration-thickness: initial; text-decoration-style: initial; text-decoration-color: initial; float: none; display: inline !important;&quot;&gt;Yes&lt;/span&gt;" style="text;whiteSpace=wrap;html=1;" vertex="1" parent="1">
          <mxGeometry x="2196" y="870" width="60" height="30" as="geometry" />
        </mxCell>
        <mxCell id="9ZaSiUd8DV9uHAAC3J2y-92" style="edgeStyle=orthogonalEdgeStyle;rounded=0;orthogonalLoop=1;jettySize=auto;html=1;exitX=0;exitY=0.5;exitDx=0;exitDy=0;entryX=0;entryY=0.5;entryDx=0;entryDy=0;" edge="1" parent="1" source="9ZaSiUd8DV9uHAAC3J2y-90" target="9ZaSiUd8DV9uHAAC3J2y-87">
          <mxGeometry relative="1" as="geometry">
            <Array as="points">
              <mxPoint x="2030" y="1080" />
              <mxPoint x="2030" y="940" />
            </Array>
          </mxGeometry>
        </mxCell>
        <mxCell id="9ZaSiUd8DV9uHAAC3J2y-96" style="edgeStyle=orthogonalEdgeStyle;rounded=0;orthogonalLoop=1;jettySize=auto;html=1;exitX=0.5;exitY=1;exitDx=0;exitDy=0;entryX=0.5;entryY=0;entryDx=0;entryDy=0;" edge="1" parent="1" source="9ZaSiUd8DV9uHAAC3J2y-90" target="9ZaSiUd8DV9uHAAC3J2y-95">
          <mxGeometry relative="1" as="geometry" />
        </mxCell>
        <mxCell id="9ZaSiUd8DV9uHAAC3J2y-90" value="&lt;font style=&quot;font-size: 17px;&quot;&gt;valid debt amount?&lt;/font&gt;" style="rhombus;whiteSpace=wrap;html=1;fillColor=#e3c800;fontColor=#000000;strokeColor=#B09500;" vertex="1" parent="1">
          <mxGeometry x="2087" y="1030" width="210" height="100" as="geometry" />
        </mxCell>
        <mxCell id="9ZaSiUd8DV9uHAAC3J2y-93" value="&lt;span style=&quot;color: rgb(240, 240, 240); font-family: Helvetica; font-size: 17px; font-style: normal; font-variant-ligatures: normal; font-variant-caps: normal; font-weight: 400; letter-spacing: normal; orphans: 2; text-align: center; text-indent: 0px; text-transform: none; widows: 2; word-spacing: 0px; -webkit-text-stroke-width: 0px; background-color: rgb(42, 37, 47); text-decoration-thickness: initial; text-decoration-style: initial; text-decoration-color: initial; float: none; display: inline !important;&quot;&gt;No&lt;/span&gt;" style="text;whiteSpace=wrap;html=1;" vertex="1" parent="1">
          <mxGeometry x="2050" y="1050" width="60" height="30" as="geometry" />
        </mxCell>
        <mxCell id="9ZaSiUd8DV9uHAAC3J2y-94" value="&lt;span style=&quot;color: rgb(240, 240, 240); font-family: Helvetica; font-size: 17px; font-style: normal; font-variant-ligatures: normal; font-variant-caps: normal; font-weight: 400; letter-spacing: normal; orphans: 2; text-align: center; text-indent: 0px; text-transform: none; widows: 2; word-spacing: 0px; -webkit-text-stroke-width: 0px; background-color: rgb(42, 37, 47); text-decoration-thickness: initial; text-decoration-style: initial; text-decoration-color: initial; float: none; display: inline !important;&quot;&gt;Yes&lt;/span&gt;" style="text;whiteSpace=wrap;html=1;" vertex="1" parent="1">
          <mxGeometry x="2196" y="1140" width="60" height="30" as="geometry" />
        </mxCell>
        <mxCell id="9ZaSiUd8DV9uHAAC3J2y-98" style="edgeStyle=orthogonalEdgeStyle;rounded=0;orthogonalLoop=1;jettySize=auto;html=1;exitX=0.5;exitY=1;exitDx=0;exitDy=0;entryX=0.5;entryY=0;entryDx=0;entryDy=0;" edge="1" parent="1" source="9ZaSiUd8DV9uHAAC3J2y-95" target="9ZaSiUd8DV9uHAAC3J2y-97">
          <mxGeometry relative="1" as="geometry" />
        </mxCell>
        <mxCell id="9ZaSiUd8DV9uHAAC3J2y-95" value="&lt;font style=&quot;font-size: 18px;&quot;&gt;Insert debtor&lt;/font&gt;" style="rounded=0;whiteSpace=wrap;html=1;fillColor=#1ba1e2;fontColor=#ffffff;strokeColor=#006EAF;" vertex="1" parent="1">
          <mxGeometry x="2132" y="1180" width="120" height="60" as="geometry" />
        </mxCell>
        <mxCell id="9ZaSiUd8DV9uHAAC3J2y-97" value="&lt;span style=&quot;font-size: 18px;&quot;&gt;Append debtor to shop&lt;/span&gt;" style="rounded=0;whiteSpace=wrap;html=1;fillColor=#1ba1e2;fontColor=#ffffff;strokeColor=#006EAF;" vertex="1" parent="1">
          <mxGeometry x="2132" y="1280" width="120" height="60" as="geometry" />
        </mxCell>
      </root>
    </mxGraphModel>
  </diagram>
</mxfile>
